<svg width="60" height="60" viewBox="0 0 60 60" fill="none" xmlns="http://www.w3.org/2000/svg">
<g filter="url(#filter0_d_2_201)">
<circle cx="30" cy="26" r="26" fill="#5ECE7B"/>
<path d="M41.4736 19.8483C41.0186 19.2924 40.3109 18.9545 39.5785 18.9545H24.1907L23.711 17.1668C23.4326 16.1276 22.4732 15.4027 21.3608 15.4027H18.7837C18.3544 15.4027 18 15.7406 18 16.1522C18 16.5627 18.3534 16.9016 18.7837 16.9016H21.3608C21.7398 16.9016 22.0685 17.1432 22.1692 17.5057L25.2517 29.2493C25.53 30.2885 26.4894 31.0134 27.6018 31.0134H37.6833C38.7947 31.0134 39.7808 30.2885 40.0335 29.2493L41.9286 21.8069C42.1053 21.1292 41.9543 20.4043 41.4736 19.8484L41.4736 19.8483ZM40.3879 21.467L38.4928 28.9094C38.3921 29.2718 38.0634 29.5135 37.6844 29.5135H27.6018C27.2228 29.5135 26.8941 29.2718 26.7935 28.9094L24.5953 20.4771H39.5796C39.8323 20.4771 40.085 20.5979 40.237 20.7914C40.388 20.9839 40.463 21.2256 40.388 21.4672L40.3879 21.467Z" fill="white"/>
<path d="M28.1332 31.9778C26.6932 31.9778 25.5059 33.1133 25.5059 34.4903C25.5059 35.8673 26.6933 37.0027 28.1332 37.0027C29.5733 37.0037 30.7606 35.8682 30.7606 34.491C30.7606 33.1138 29.5732 31.9776 28.1332 31.9776V31.9778ZM28.1332 35.4814C27.5519 35.4814 27.0968 35.0463 27.0968 34.4904C27.0968 33.9344 27.5519 33.4993 28.1332 33.4993C28.7146 33.4993 29.1696 33.9344 29.1696 34.4904C29.1687 35.0227 28.689 35.4814 28.1332 35.4814Z" fill="white"/>
<path d="M36.825 31.9778C35.3849 31.9778 34.1976 33.1132 34.1976 34.4902C34.1976 35.8672 35.385 37.0027 36.825 37.0027C38.265 37.0027 39.4524 35.8672 39.4524 34.4902C39.4277 33.1141 38.265 31.9778 36.825 31.9778ZM36.825 35.4814C36.2437 35.4814 35.7886 35.0462 35.7886 34.4903C35.7886 33.9344 36.2437 33.4992 36.825 33.4992C37.4064 33.4992 37.8614 33.9344 37.8614 34.4903C37.8614 35.0226 37.3807 35.4814 36.825 35.4814Z" fill="white"/>
</g>
<defs>
<filter id="filter0_d_2_201" x="0" y="0" width="60" height="60" filterUnits="userSpaceOnUse" color-interpolation-filters="sRGB">
<feFlood flood-opacity="0" result="BackgroundImageFix"/>
<feColorMatrix in="SourceAlpha" type="matrix" values="0 0 0 0 0 0 0 0 0 0 0 0 0 0 0 0 0 0 1 0" result="hardAlpha"/>
<feOffset dy="4"/>
<feGaussianBlur stdDeviation="2"/>
<feComposite in2="hardAlpha" operator="out"/>
<feColorMatrix type="matrix" values="0 0 0 0 0 0 0 0 0 0 0 0 0 0 0 0 0 0 0.25 0"/>
<feBlend mode="normal" in2="BackgroundImageFix" result="effect1_dropShadow_2_201"/>
<feBlend mode="normal" in="SourceGraphic" in2="effect1_dropShadow_2_201" result="shape"/>
</filter>
</defs>
</svg>
